<svg width="399" height="168" viewBox="0 0 399 168" fill="none" xmlns="http://www.w3.org/2000/svg">
<path d="M84.7435 90.2322C84.7435 91.4609 84.5259 92.7792 84.0908 94.1871C83.6812 95.5949 82.9901 96.9004 82.0174 98.1035C81.0702 99.3066 79.8287 100.318 78.2929 101.137C76.757 101.93 74.8756 102.327 72.6486 102.327H34.7511C34.0343 102.327 33.3688 102.199 32.7544 101.943C32.1401 101.687 31.6025 101.342 31.1418 100.906C30.7066 100.446 30.361 99.9082 30.1051 99.2938C29.8491 98.6795 29.7211 98.0139 29.7211 97.2972V52.2963C29.7211 51.6052 29.8491 50.9524 30.1051 50.3381C30.361 49.7237 30.7066 49.1862 31.1418 48.7254C31.6025 48.2647 32.1401 47.9063 32.7544 47.6503C33.3688 47.3943 34.0343 47.2663 34.7511 47.2663H68.1562C69.3849 47.2663 70.7031 47.4839 72.111 47.9191C73.5189 48.3542 74.8244 49.0582 76.0275 50.0309C77.2562 50.978 78.2673 52.2195 79.0608 53.7554C79.8799 55.2912 80.2895 57.1727 80.2895 59.3997V61.2811C80.2895 63.0474 79.9951 64.9544 79.4064 67.0022C78.8176 69.0244 77.8705 70.9443 76.565 72.7617C77.6913 73.4529 78.7408 74.2848 79.7136 75.2575C80.7119 76.2302 81.5822 77.3565 82.3245 78.6364C83.0669 79.9163 83.6556 81.3626 84.0908 82.9752C84.5259 84.5879 84.7435 86.3669 84.7435 88.3124V90.2322ZM74.7604 88.3124C74.7604 87.0069 74.5556 85.8422 74.146 84.8183C73.7365 83.7688 73.1605 82.8728 72.4182 82.1305C71.6759 81.3882 70.7799 80.825 69.7304 80.4411C68.6809 80.0315 67.5034 79.8267 66.1979 79.8267H43.6975V69.7668H61.7055C63.011 69.7668 64.1885 69.5748 65.238 69.1908C66.2875 68.7813 67.1834 68.2053 67.9258 67.463C68.6681 66.7206 69.2313 65.8375 69.6152 64.8136C70.0248 63.7641 70.2296 62.5866 70.2296 61.2811V59.3997C70.2296 57.9662 69.5384 57.2495 68.1562 57.2495H39.7042V92.344H72.6486C72.8278 92.344 73.0453 92.3312 73.3013 92.3056C73.5573 92.28 73.7877 92.2032 73.9925 92.0752C74.1972 91.9473 74.3764 91.7297 74.53 91.4225C74.6836 91.1153 74.7604 90.693 74.7604 90.1554V88.3124ZM110.584 102.327H106.13C104.697 102.327 103.161 102.084 101.523 101.598C99.9102 101.111 98.3999 100.318 96.9921 99.217C95.5842 98.0907 94.4195 96.6444 93.498 94.8782C92.5764 93.0864 92.1157 90.8977 92.1157 88.3124V43.2731H102.099V88.3124C102.099 89.5411 102.483 90.5266 103.251 91.2689C104.019 91.9856 104.979 92.344 106.13 92.344H110.584V102.327ZM162.151 88.3124C162.151 90.0274 161.934 91.5761 161.498 92.9584C161.063 94.315 160.487 95.5181 159.771 96.5676C159.054 97.5916 158.222 98.4747 157.275 99.217C156.328 99.9338 155.329 100.523 154.28 100.983C153.256 101.444 152.206 101.79 151.131 102.02C150.082 102.225 149.084 102.327 148.136 102.327H130.128C128.746 102.327 127.236 102.084 125.598 101.598C123.959 101.111 122.436 100.318 121.028 99.217C119.646 98.0907 118.481 96.6444 117.534 94.8782C116.613 93.0864 116.152 90.8977 116.152 88.3124V74.7967C116.152 72.237 116.613 70.074 117.534 68.3077C118.481 66.5159 119.646 65.0696 121.028 63.9689C122.436 62.8426 123.959 62.0363 125.598 61.5499C127.236 61.0635 128.746 60.8204 130.128 60.8204H148.136C150.696 60.8204 152.872 61.2811 154.664 62.2026C156.456 63.1242 157.902 64.2889 159.003 65.6967C160.103 67.079 160.897 68.5893 161.383 70.2275C161.895 71.8658 162.151 73.3889 162.151 74.7967V88.3124ZM152.168 74.8735C152.168 73.4913 151.822 72.4673 151.131 71.8018C150.44 71.1363 149.442 70.8035 148.136 70.8035H130.205C128.874 70.8035 127.863 71.1491 127.172 71.8402C126.481 72.5057 126.135 73.4913 126.135 74.7967V88.3124C126.135 89.6179 126.481 90.6162 127.172 91.3073C127.863 91.9984 128.874 92.344 130.205 92.344H148.136C149.493 92.344 150.504 91.9984 151.17 91.3073C151.835 90.6162 152.168 89.6179 152.168 88.3124V74.8735ZM210.877 102.327H183.807C182.425 102.327 180.914 102.084 179.276 101.598C177.638 101.111 176.115 100.318 174.707 99.217C173.325 98.0907 172.16 96.6444 171.213 94.8782C170.291 93.0864 169.831 90.8977 169.831 88.3124V74.7967C169.831 73.8496 169.933 72.8513 170.138 71.8018C170.368 70.7523 170.714 69.7156 171.174 68.6917C171.635 67.6422 172.224 66.6439 172.941 65.6967C173.683 64.7496 174.566 63.9177 175.59 63.201C176.64 62.4842 177.843 61.9083 179.199 61.4731C180.556 61.0379 182.092 60.8204 183.807 60.8204H210.877V70.8035H183.807C182.501 70.8035 181.503 71.1363 180.812 71.8018C180.146 72.4673 179.814 73.4913 179.814 74.8735V88.3124C179.814 89.6179 180.159 90.6162 180.85 91.3073C181.541 91.9984 182.553 92.344 183.884 92.344H210.877V102.327ZM267.896 102.327H253.497L233.377 82.8984C232.251 81.8745 231.726 80.5946 231.803 79.0588C231.854 78.342 232.033 77.6765 232.34 77.0621C232.673 76.4222 233.121 75.8846 233.684 75.4495L251.923 60.7436H267.896L244.397 79.6731L267.896 102.327ZM229.269 102.327H219.285V43.2731H229.269V102.327Z" fill="#166DFF"/>
<path d="M349.449 26H369.525C371.307 26 372.199 28.1543 370.939 29.4142L325.44 74.9129C324.659 75.694 324.659 76.9603 325.44 77.7414L370.939 123.24C372.199 124.5 371.307 126.654 369.525 126.654H349.449C348.388 126.654 347.37 126.233 346.62 125.483L300.293 79.1556C298.731 77.5935 298.731 75.0608 300.293 73.4987L346.62 27.1716C347.37 26.4214 348.388 26 349.449 26Z" fill="#166DFF"/>
<path d="M310.38 60.5838L300.733 50.9372C299.983 50.1871 298.965 49.7656 297.904 49.7656H277.828C276.046 49.7656 275.154 51.9199 276.414 53.1798L297.489 74.2549C297.78 73.4631 298.243 72.7202 298.879 72.0845L310.38 60.5838Z" fill="#166DFF"/>
<path d="M297.489 78.3994C297.78 79.1913 298.243 79.9341 298.879 80.5698L310.38 92.0705L300.733 101.717C299.983 102.467 298.965 102.889 297.904 102.889H277.828C276.046 102.889 275.154 100.734 276.414 99.4745L297.489 78.3994Z" fill="#166DFF"/>
<path d="M59.6309 123.304C59.6309 124.492 59.484 125.553 59.1904 126.487C58.8968 127.421 58.4964 128.249 57.9893 128.969C57.4954 129.677 56.9215 130.284 56.2676 130.791C55.6136 131.298 54.9263 131.712 54.2056 132.032C53.4982 132.353 52.7775 132.586 52.0435 132.733C51.3228 132.88 50.6421 132.953 50.0015 132.953H38.23V127.748H50.0015C50.6688 127.695 51.2694 127.561 51.8032 127.348C52.3504 127.121 52.8175 126.82 53.2046 126.447C53.5916 126.073 53.8919 125.626 54.1055 125.105C54.319 124.572 54.4258 123.971 54.4258 123.304V120.941C54.359 120.287 54.2189 119.687 54.0054 119.14C53.7918 118.592 53.4982 118.125 53.1245 117.738C52.7642 117.351 52.3237 117.051 51.8032 116.837C51.2827 116.611 50.6821 116.497 50.0015 116.497H38.27C37.576 116.497 37.0488 116.677 36.6885 117.038C36.3281 117.398 36.1479 117.918 36.1479 118.599V140H30.9429V118.599C30.9429 117.264 31.1831 116.13 31.6636 115.196C32.1574 114.262 32.7646 113.507 33.4854 112.934C34.2194 112.36 35.0135 111.946 35.8677 111.692C36.7218 111.425 37.5093 111.292 38.23 111.292H50.0015C51.1759 111.292 52.2303 111.445 53.1646 111.752C54.0988 112.046 54.9196 112.446 55.627 112.954C56.3477 113.447 56.9549 114.021 57.4487 114.675C57.9559 115.329 58.3696 116.017 58.6899 116.737C59.0236 117.445 59.2638 118.165 59.4106 118.899C59.5575 119.62 59.6309 120.301 59.6309 120.941V123.304ZM86.9703 140H81.7653V111.292H86.9703V140ZM139.374 137.778C139.374 138.152 139.301 138.499 139.154 138.819C139.021 139.139 138.834 139.419 138.593 139.66C138.367 139.887 138.093 140.067 137.773 140.2C137.452 140.334 137.112 140.4 136.752 140.4C136.431 140.4 136.104 140.34 135.771 140.22C135.45 140.1 135.163 139.907 134.91 139.64L115.891 119.78V140H110.686V113.514C110.686 112.98 110.833 112.5 111.127 112.073C111.434 111.632 111.821 111.305 112.288 111.092C112.782 110.892 113.289 110.845 113.809 110.952C114.33 111.045 114.777 111.285 115.151 111.672L134.169 131.512V111.292H139.374V137.778ZM191.398 137.377C191.398 137.751 191.331 138.098 191.198 138.418C191.064 138.739 190.877 139.019 190.637 139.259C190.41 139.486 190.137 139.666 189.816 139.8C189.496 139.933 189.149 140 188.775 140H169.997C169.516 140 168.996 139.947 168.435 139.84C167.888 139.72 167.341 139.54 166.794 139.299C166.26 139.059 165.746 138.752 165.252 138.378C164.758 137.991 164.318 137.531 163.931 136.997C163.557 136.45 163.257 135.823 163.03 135.115C162.803 134.395 162.69 133.587 162.69 132.693V118.599C162.69 118.119 162.743 117.605 162.85 117.058C162.97 116.497 163.15 115.95 163.39 115.416C163.631 114.869 163.944 114.348 164.331 113.854C164.718 113.361 165.179 112.927 165.713 112.553C166.26 112.166 166.887 111.859 167.595 111.632C168.302 111.405 169.103 111.292 169.997 111.292H191.158V116.497H169.997C169.316 116.497 168.796 116.677 168.435 117.038C168.075 117.398 167.895 117.932 167.895 118.639V132.693C167.895 133.36 168.075 133.881 168.435 134.254C168.809 134.615 169.33 134.795 169.997 134.795H186.193V128.269H172.339V123.023H188.775C189.149 123.023 189.496 123.097 189.816 123.244C190.137 123.377 190.41 123.564 190.637 123.804C190.877 124.044 191.064 124.325 191.198 124.645C191.331 124.952 191.398 125.286 191.398 125.646V137.377Z" fill="#166DFF"/>
</svg>
